<svg xmlns="http://www.w3.org/2000/svg" xmlns:xlink="http://www.w3.org/1999/xlink" contentStyleType="text/css" height="676px" preserveAspectRatio="none" style="width:1247px;height:676px;background:#003153;" version="1.1" viewBox="0 0 1247 676" width="1247px" zoomAndPan="magnify"><script xmlns=""/><defs/><g><rect fill="#003153" height="676" style="stroke:none;stroke-width:1.0;" width="1247" x="0" y="0"/><ellipse cx="21" cy="337.5" fill="#D9D3D0" rx="10" ry="10" style="stroke:none;stroke-width:1.0;"/><rect fill="#003153" height="40" rx="12.5" ry="12.5" style="stroke:#D9D3D0;stroke-width:1.0;" width="109" x="66.5" y="317.5"/><text fill="#D9D3D0" font-family="Verdana" font-size="22" lengthAdjust="spacing" textLength="99" x="71.5" y="345.1162">Unbound</text><path d="M252,12 L1221.64,12 A12.5,12.5 0 0 1 1234.14,24.5 L1234.14,47.6094 L239.5,47.6094 L239.5,24.5 A12.5,12.5 0 0 1 252,12 " fill="#003153" style="stroke:#003153;stroke-width:1.0;"/><path d="M239.5,47.6094 L1234.14,47.6094 L1234.14,650.1094 A12.5,12.5 0 0 1 1221.64,662.6094 L252,662.6094 A12.5,12.5 0 0 1 239.5,650.1094 L239.5,47.6094 " fill="#003153" style="stroke:#003153;stroke-width:1.0;"/><rect fill="none" height="650.6094" rx="12.5" ry="12.5" style="stroke:#D9D3D0;stroke-width:1.0;" width="994.64" x="239.5" y="12"/><line style="stroke:#D9D3D0;stroke-width:1.0;" x1="239.5" x2="1234.14" y1="47.6094" y2="47.6094"/><text fill="#D9D3D0" font-family="Verdana" font-size="22" lengthAdjust="spacing" textLength="70" x="701.82" y="37.4209">Bound</text><ellipse cx="324.13" cy="68.6094" fill="#D9D3D0" rx="10" ry="10" style="stroke:none;stroke-width:1.0;"/><rect fill="#003153" height="40" rx="12.5" ry="12.5" style="stroke:#D9D3D0;stroke-width:1.0;" width="91" x="278.63" y="115.6094"/><text fill="#D9D3D0" font-family="Verdana" font-size="22" lengthAdjust="spacing" textLength="81" x="283.63" y="143.2256">Passive</text><rect fill="#003153" height="40" rx="12.5" ry="12.5" style="stroke:#D9D3D0;stroke-width:1.0;" width="79" x="284.63" y="208.6094"/><text fill="#D9D3D0" font-family="Verdana" font-size="22" lengthAdjust="spacing" textLength="69" x="289.63" y="236.2256">Active</text><!--link *start*Bound to Passive--><g id="link_*start*Bound_Passive"><path d="M324.13,78.6494 C324.13,86.7994 324.13,99.1694 324.13,110.2094 " fill="none" id="*start*Bound-to-Passive" style="stroke:#D9D3D0;stroke-width:1.0;"/><polygon fill="#D9D3D0" points="324.13,115.4994,328.13,106.4994,324.13,110.4994,320.13,106.4994,324.13,115.4994" style="stroke:#D9D3D0;stroke-width:1.0;"/></g><!--link Passive to Active--><g id="link_Passive_Active"><path d="M278.62,154.1594 C270.83,159.2394 263.77,165.6394 259.13,173.6094 C250.5,188.4494 263.34,200.9994 279.82,210.2594 " fill="none" id="Passive-to-Active" style="stroke:#D9D3D0;stroke-width:1.0;"/><polygon fill="#D9D3D0" points="284.55,212.7894,278.4951,205.0216,280.1394,210.4342,274.7268,212.0785,284.55,212.7894" style="stroke:#D9D3D0;stroke-width:1.0;"/><text fill="#D9D3D0" font-family="Verdana" font-size="13" lengthAdjust="spacing" textLength="107" x="260.13" y="186.6763">subset_selection</text></g><!--link Active to Passive--><g id="link_Active_Passive"><path d="M354.24,208.4794 C365.43,198.8194 374.11,186.4394 368.13,173.6094 C365.75,168.4794 362.26,163.8094 358.28,159.6494 " fill="none" id="Active-to-Passive" style="stroke:#D9D3D0;stroke-width:1.0;"/><polygon fill="#D9D3D0" points="354.5,155.9694,358.1469,165.1181,358.0782,159.4617,363.7346,159.393,354.5,155.9694" style="stroke:#D9D3D0;stroke-width:1.0;"/><text fill="#D9D3D0" font-family="Verdana" font-size="13" lengthAdjust="spacing" textLength="84" x="370.13" y="186.6763">reward, slash</text></g><line style="stroke:#D9D3D0;stroke-width:1.5;stroke-dasharray:8.0,10.0;" x1="449.13" x2="449.13" y1="52.6094" y2="665.6094"/><!--cluster Unchilled--><g id="cluster_Unchilled"><path d="M472.64,121.6094 L797.64,121.6094 A12.5,12.5 0 0 1 810.14,134.1094 L810.14,152.2188 L460.14,152.2188 L460.14,134.1094 A12.5,12.5 0 0 1 472.64,121.6094 " fill="#003153" style="stroke:#003153;stroke-width:1.0;"/><path d="M460.14,152.2188 L810.14,152.2188 L810.14,423.1094 A12.5,12.5 0 0 1 797.64,435.6094 L472.64,435.6094 A12.5,12.5 0 0 1 460.14,423.1094 L460.14,152.2188 " fill="#003153" style="stroke:#003153;stroke-width:1.0;"/><rect fill="none" height="314" rx="12.5" ry="12.5" style="stroke:#D9D3D0;stroke-width:1.0;" width="350" x="460.14" y="121.6094"/><line style="stroke:#D9D3D0;stroke-width:1.0;" x1="460.14" x2="810.14" y1="152.2188" y2="152.2188"/><text fill="#D9D3D0" font-family="Verdana" font-size="22" lengthAdjust="spacing" textLength="101" x="584.64" y="146.0303">Unchilled</text></g><!--cluster Chilled--><g id="cluster_Chilled"><path d="M906.64,329.6094 L1069.64,329.6094 A12.5,12.5 0 0 1 1082.14,342.1094 L1082.14,360.2188 L894.14,360.2188 L894.14,342.1094 A12.5,12.5 0 0 1 906.64,329.6094 " fill="#003153" style="stroke:#003153;stroke-width:1.0;"/><path d="M894.14,360.2188 L1082.14,360.2188 L1082.14,639.1094 A12.5,12.5 0 0 1 1069.64,651.6094 L906.64,651.6094 A12.5,12.5 0 0 1 894.14,639.1094 L894.14,360.2188 " fill="#003153" style="stroke:#003153;stroke-width:1.0;"/><rect fill="none" height="322" rx="12.5" ry="12.5" style="stroke:#D9D3D0;stroke-width:1.0;" width="188" x="894.14" y="329.6094"/><line style="stroke:#D9D3D0;stroke-width:1.0;" x1="894.14" x2="1082.14" y1="360.2188" y2="360.2188"/><text fill="#D9D3D0" font-family="Verdana" font-size="22" lengthAdjust="spacing" textLength="74" x="951.14" y="354.0303">Chilled</text></g><ellipse cx="733.14" cy="183.6094" fill="#D9D3D0" rx="10" ry="10" style="stroke:none;stroke-width:1.0;"/><rect fill="#003153" height="40" rx="12.5" ry="12.5" style="stroke:#D9D3D0;stroke-width:1.0;" width="89" x="688.64" y="230.6094"/><text fill="#D9D3D0" font-family="Verdana" font-size="22" lengthAdjust="spacing" textLength="79" x="693.64" y="258.2256">Normal</text><rect fill="#003153" height="40" rx="12.5" ry="12.5" style="stroke:#D9D3D0;stroke-width:1.0;" width="92" x="665.14" y="371.6094"/><text fill="#D9D3D0" font-family="Verdana" font-size="22" lengthAdjust="spacing" textLength="82" x="670.14" y="399.2256">Faulted</text><ellipse cx="1040.14" cy="391.6094" fill="#D9D3D0" rx="10" ry="10" style="stroke:none;stroke-width:1.0;"/><rect fill="#003153" height="40" rx="12.5" ry="12.5" style="stroke:#D9D3D0;stroke-width:1.0;" width="132" x="918.14" y="494.6094"/><text fill="#D9D3D0" font-family="Verdana" font-size="22" lengthAdjust="spacing" textLength="122" x="923.14" y="522.2256">Pardonable</text><rect fill="#003153" height="40" rx="12.5" ry="12.5" style="stroke:#D9D3D0;stroke-width:1.0;" width="102" x="918.14" y="587.6094"/><text fill="#D9D3D0" font-family="Verdana" font-size="22" lengthAdjust="spacing" textLength="92" x="923.14" y="615.2256">Slacking</text><ellipse cx="802.14" cy="68.6094" fill="#D9D3D0" rx="10" ry="10" style="stroke:none;stroke-width:1.0;"/><rect fill="#003153" height="40" rx="12.5" ry="12.5" style="stroke:#D9D3D0;stroke-width:1.0;" width="120" x="1106.14" y="494.6094"/><text fill="#D9D3D0" font-family="Verdana" font-size="22" lengthAdjust="spacing" textLength="110" x="1111.14" y="522.2256">Unbound_</text><!--link *start*CONC15 to Unchilled--><g id="link_*start*CONC15_Unchilled"><path d="M802.14,78.8594 C802.14,85.4994 802.14,95.1544 802.14,105.9383 C802.14,108.6343 802.14,111.4008 802.14,114.2084 C802.14,115.6122 802.14,117.0263 802.14,118.447 C802.14,119.1573 802.14,119.8693 802.14,120.5825 C802.14,120.7607 802.14,120.9391 802.14,121.1175 " fill="none" id="*start*CONC15-to-Unchilled" style="stroke:#D9D3D0;stroke-width:1.0;"/><polygon fill="#D9D3D0" points="802.14,121.1175,806.14,112.1175,802.14,116.1175,798.14,112.1175,802.14,121.1175" style="stroke:#D9D3D0;stroke-width:1.0;"/></g><!--link *start*Unchilled to Normal--><g id="link_*start*Unchilled_Normal"><path d="M733.14,193.6494 C733.14,201.7994 733.14,214.1694 733.14,225.2094 " fill="none" id="*start*Unchilled-to-Normal" style="stroke:#D9D3D0;stroke-width:1.0;"/><polygon fill="#D9D3D0" points="733.14,230.4994,737.14,221.4994,733.14,225.4994,729.14,221.4994,733.14,230.4994" style="stroke:#D9D3D0;stroke-width:1.0;"/></g><!--link Normal to Faulted--><g id="link_Normal_Faulted"><path d="M688.6,252.1894 C628.56,254.0294 526.48,261.2094 503.14,288.6094 C455.13,344.9694 583.71,373.0094 659.75,384.3294 " fill="none" id="Normal-to-Faulted" style="stroke:#D9D3D0;stroke-width:1.0;"/><polygon fill="#D9D3D0" points="665.13,385.1094,656.7946,379.8633,660.1814,384.3943,655.6504,387.781,665.13,385.1094" style="stroke:#D9D3D0;stroke-width:1.0;"/><text fill="#D9D3D0" font-family="Verdana" font-size="13" lengthAdjust="spacing" textLength="206" x="504.14" y="301.6763">[nominal_value &gt; some%] slash</text></g><!--reverse link Normal to Faulted--><g id="link_Normal_Faulted"><path d="M729.3,275.8494 C725.01,302.9894 718.13,346.4394 714.19,371.3594 " fill="none" id="Normal-backto-Faulted" style="stroke:#D9D3D0;stroke-width:1.0;"/><polygon fill="#D9D3D0" points="730.13,270.6494,724.763,278.9074,729.3428,275.587,732.6632,280.1669,730.13,270.6494" style="stroke:#D9D3D0;stroke-width:1.0;"/><text fill="#D9D3D0" font-family="Verdana" font-size="13" lengthAdjust="spacing" textLength="43" x="729.14" y="301.6763">reward</text></g><!--link *start*Chilled to Pardonable--><g id="link_*start*Chilled_Pardonable"><path d="M1036.96,401.1094 C1032.57,412.6694 1024.28,433.9294 1016.14,451.6094 C1010.19,464.5294 1002.97,478.6394 996.89,490.1294 " fill="none" id="*start*Chilled-to-Pardonable" style="stroke:#D9D3D0;stroke-width:1.0;"/><polygon fill="#D9D3D0" points="994.54,494.5594,1002.3078,488.5045,996.8952,490.1488,995.2508,484.7362,994.54,494.5594" style="stroke:#D9D3D0;stroke-width:1.0;"/></g><!--link Pardonable to Slacking--><g id="link_Pardonable_Slacking"><path d="M980.96,534.9094 C978.69,548.6594 975.63,567.2594 973.18,582.0694 " fill="none" id="Pardonable-to-Slacking" style="stroke:#D9D3D0;stroke-width:1.0;"/><polygon fill="#D9D3D0" points="972.32,587.3394,977.7297,579.1093,973.1327,582.4059,969.8361,577.8089,972.32,587.3394" style="stroke:#D9D3D0;stroke-width:1.0;"/><text fill="#D9D3D0" font-family="Verdana" font-size="13" lengthAdjust="spacing" textLength="110" x="978.14" y="565.6763">[after x sessions]</text></g><!--link Normal to Pardonable--><g id="link_Normal_Pardonable"><path d="M762.3,270.9594 C768.04,276.0494 773.42,281.9994 777.14,288.6094 C813.04,352.5094 755.07,395.4294 802.14,451.6094 C829.32,484.0594 874.23,499.5694 912.64,506.9694 " fill="none" id="Normal-to-Pardonable" style="stroke:#D9D3D0;stroke-width:1.0;"/><polygon fill="#D9D3D0" points="917.77,507.9194,909.6535,502.3407,912.8543,507.0048,908.1902,510.2057,917.77,507.9194" style="stroke:#D9D3D0;stroke-width:1.0;"/><text fill="#D9D3D0" font-family="Verdana" font-size="13" lengthAdjust="spacing" textLength="217" x="803.14" y="396.1763">[nominal_value &lt;= some%] slash</text></g><!--link Faulted to Pardonable--><g id="link_Faulted_Pardonable"><path d="M713.2,411.8594 C716.37,431.3294 724.32,460.7494 744.14,476.6094 C769.56,496.9394 851.63,506.2094 912.76,510.3594 " fill="none" id="Faulted-to-Pardonable" style="stroke:#D9D3D0;stroke-width:1.0;"/><polygon fill="#D9D3D0" points="917.86,510.6994,909.1425,506.1162,912.8708,510.3706,908.6164,514.0989,917.86,510.6994" style="stroke:#D9D3D0;stroke-width:1.0;"/><text fill="#D9D3D0" font-family="Verdana" font-size="13" lengthAdjust="spacing" textLength="33" x="745.14" y="472.6763">slash</text></g><!--reverse link Unchilled to Chilled--><g id="link_Unchilled_Chilled"><path d="M810.2107,228.1508 C810.3048,228.4437 810.4,228.7367 810.4963,229.03 C810.8816,230.2032 811.2844,231.3799 811.7055,232.5575 C813.39,237.2677 815.3677,241.9912 817.6889,246.5539 C822.3313,255.6794 828.3475,264.1619 836.14,270.6094 C914.92,335.7894 991.06,240.1094 1062.14,313.6094 C1065.0563,316.6244 1067.4422,320.0383 1069.3835,323.7103 C1070.3541,325.5463 1071.2136,327.4468 1071.9726,329.3942 " fill="none" id="Unchilled-backto-Chilled" style="stroke:#D9D3D0;stroke-width:1.0;"/><polygon fill="#D9D3D0" points="810.2107,228.1508,809.1572,237.9432,811.741,232.9109,816.7733,235.4947,810.2107,228.1508" style="stroke:#D9D3D0;stroke-width:1.0;"/><text fill="#D9D3D0" font-family="Verdana" font-size="13" lengthAdjust="spacing" textLength="213" x="837.14" y="255.1763">[nominal_value &gt; some%] unchill</text></g><!--link Unchilled to Chilled--><g id="link_Unchilled_Chilled"><path d="M810.4776,184.8898 C810.6496,184.8964 810.824,184.9032 811.0009,184.9101 C811.7083,184.9377 812.4543,184.9675 813.2375,184.9995 C819.5029,185.2555 828.148,185.6559 838.463,186.2563 C859.0928,187.4569 886.4019,189.4569 914.7113,192.6994 C971.33,199.1844 1031.95,210.6394 1051.14,230.6094 C1075.64,256.1044 1081.595,295.2619 1081.325,328.4569 C1081.3229,328.7162 1081.3204,328.9752 1081.3175,329.2338 " fill="none" id="Unchilled-to-Chilled" style="stroke:#D9D3D0;stroke-width:1.0;"/><polygon fill="#D9D3D0" points="1081.3175,329.2338,1085.4169,320.2786,1081.3729,324.2341,1077.4174,320.19,1081.3175,329.2338" style="stroke:#D9D3D0;stroke-width:1.0;"/><text fill="#D9D3D0" font-family="Verdana" font-size="13" lengthAdjust="spacing" textLength="24" x="1074.14" y="255.1763">chill</text></g><!--link Chilled to Unbound_--><g id="link_Chilled_Unbound_"><path d="M1082.2863,403.3233 C1082.3621,403.4229 1082.4383,403.5231 1082.5149,403.6239 C1082.6681,403.8255 1082.8231,404.0293 1082.9798,404.2355 C1087.9947,410.8316 1094.7669,419.7388 1102.2937,429.6381 C1117.3475,449.4369 1135.42,473.2044 1148.49,490.3894 " fill="none" id="Chilled-to-Unbound_" style="stroke:#D9D3D0;stroke-width:1.0;"/><polygon fill="#D9D3D0" points="1151.57,494.4494,1149.3098,484.8634,1148.5449,490.4683,1142.94,489.7035,1151.57,494.4494" style="stroke:#D9D3D0;stroke-width:1.0;"/><text fill="#D9D3D0" font-family="Verdana" font-size="13" lengthAdjust="spacing" textLength="43" x="1137.14" y="472.6763">unbind</text></g><!--link *start to Unbound--><g id="link_*start_Unbound"><path d="M31.16,337.5 C41.12,337.5 51.08,337.5 61.04,337.5 " fill="none" id="*start-to-Unbound" style="stroke:#D9D3D0;stroke-width:1.0;"/><polygon fill="#D9D3D0" points="66.25,337.5,57.25,333.5,61.25,337.5,57.25,341.5,66.25,337.5" style="stroke:#D9D3D0;stroke-width:1.0;"/></g><!--link Unbound to Bound--><g id="link_Unbound_Bound"><path d="M175.67,337.5 C192.36,337.5 212.25,337.5 234.41,337.5 " fill="none" id="Unbound-to-Bound" style="stroke:#D9D3D0;stroke-width:1.0;"/><polygon fill="#D9D3D0" points="239.48,337.5,230.48,333.5,234.48,337.5,230.48,341.5,239.48,337.5" style="stroke:#D9D3D0;stroke-width:1.0;"/><text fill="#D9D3D0" font-family="Verdana" font-size="13" lengthAdjust="spacing" textLength="27" x="194" y="330.5669">bind</text></g><!--SRC=[VL9DJyCm3BtdLvW35qJ_G0MJO197D0djD5LLsdXhH9fK-TX0RFyTDqtR0Hkdki_lsS-ERto3BKAb0dPMQizO8mK2jft_186kjhBpqcZ6DdS5P5Rk6fyjOAqh4xHWwGi4FVT13fKac3dFFGuGV360A1Rce8cuuix9FHAQ8iW8VQezXJcuK3dqfKE5TMmCAHLPIP63nGEtuXwSugvXH3eUsQy-QrqtKYaKVM8mD47Hr4_wgx4jLn4UmYdpmeFoIBDjj6cbvghSSzeNBC2P5c-BPA9N9YfaePjAZcQ9S9gjBAyQMH7NQ5ufZAdvTsAyALw_IxqZHtphqS87EAJ56EsAImFC9VxCyF3upn0Nv2ChJZBEa2dS-lEDNrzL62WadjzYkghbg1uuvntccojpAXAlxFGD]--></g></svg>