<svg xmlns="http://www.w3.org/2000/svg" xmlns:xlink="http://www.w3.org/1999/xlink" contentStyleType="text/css" height="346px" preserveAspectRatio="none" style="width:988px;height:346px;background:#FFFFFF;" version="1.1" viewBox="0 0 988 346" width="988px" zoomAndPan="magnify"><defs/><g><rect fill="#FFFFFF" height="143.3984" style="stroke:#181818;stroke-width:1.0;" width="10" x="153.8774" y="101.1875"/><rect fill="#FFFFFF" height="100.2656" style="stroke:#181818;stroke-width:1.0;" width="10" x="287.8711" y="115.1875"/><rect fill="#FFFFFF" height="57.1328" style="stroke:#181818;stroke-width:1.0;" width="10" x="454.6157" y="129.1875"/><rect fill="#FFFFFF" height="43.1328" style="stroke:#181818;stroke-width:1.0;" width="10" x="631.457" y="143.1875"/><rect fill="#FFFFFF" height="29.1328" style="stroke:#181818;stroke-width:1.0;" width="10" x="843.4111" y="157.1875"/><line style="stroke:#181818;stroke-width:0.5;stroke-dasharray:5.0,5.0;" x1="44" x2="44" y1="85.1875" y2="262.5859"/><line style="stroke:#181818;stroke-width:0.5;stroke-dasharray:5.0,5.0;" x1="158.0029" x2="158.0029" y1="85.1875" y2="262.5859"/><line style="stroke:#181818;stroke-width:0.5;stroke-dasharray:5.0,5.0;" x1="292.752" x2="292.752" y1="85.1875" y2="262.5859"/><line style="stroke:#181818;stroke-width:0.5;stroke-dasharray:5.0,5.0;" x1="458.9902" x2="458.9902" y1="85.1875" y2="262.5859"/><line style="stroke:#181818;stroke-width:0.5;stroke-dasharray:5.0,5.0;" x1="636.2412" x2="636.2412" y1="85.1875" y2="262.5859"/><line style="stroke:#181818;stroke-width:0.5;stroke-dasharray:5.0,5.0;" x1="847.6729" x2="847.6729" y1="85.1875" y2="262.5859"/><text fill="#000000" font-family="sans-serif" font-size="14" lengthAdjust="spacing" textLength="72.0029" x="5" y="81.8857">Developer</text><ellipse cx="44.0015" cy="17.3906" fill="#E2E2F0" rx="8" ry="8" style="stroke:#181818;stroke-width:0.5;"/><path d="M44.0015,25.3906 L44.0015,52.3906 M31.0015,33.3906 L57.0015,33.3906 M44.0015,52.3906 L31.0015,67.3906 M44.0015,52.3906 L57.0015,67.3906 " fill="none" style="stroke:#181818;stroke-width:0.5;"/><text fill="#000000" font-family="sans-serif" font-size="14" lengthAdjust="spacing" textLength="72.0029" x="5" y="274.5811">Developer</text><ellipse cx="44.0015" cy="286.3828" fill="#E2E2F0" rx="8" ry="8" style="stroke:#181818;stroke-width:0.5;"/><path d="M44.0015,294.3828 L44.0015,321.3828 M31.0015,302.3828 L57.0015,302.3828 M44.0015,321.3828 L31.0015,336.3828 M44.0015,321.3828 L57.0015,336.3828 " fill="none" style="stroke:#181818;stroke-width:0.5;"/><rect fill="#E2E2F0" height="46.5938" rx="2.5" ry="2.5" style="stroke:#181818;stroke-width:0.5;" width="131.749" x="93.0029" y="37.5938"/><text fill="#000000" font-family="sans-serif" font-size="14" lengthAdjust="spacing" textLength="117.749" x="100.0029" y="57.5889">cargo build node</text><text fill="#000000" font-family="sans-serif" font-size="14" lengthAdjust="spacing" textLength="80.8828" x="118.436" y="73.8857">-F dev-spec</text><rect fill="#E2E2F0" height="46.5938" rx="2.5" ry="2.5" style="stroke:#181818;stroke-width:0.5;" width="131.749" x="93.0029" y="261.5859"/><text fill="#000000" font-family="sans-serif" font-size="14" lengthAdjust="spacing" textLength="117.749" x="100.0029" y="281.5811">cargo build node</text><text fill="#000000" font-family="sans-serif" font-size="14" lengthAdjust="spacing" textLength="80.8828" x="118.436" y="297.8779">-F dev-spec</text><rect fill="#E2E2F0" height="30.2969" rx="2.5" ry="2.5" style="stroke:#181818;stroke-width:0.5;" width="116.2383" x="234.752" y="53.8906"/><text fill="#000000" font-family="sans-serif" font-size="14" lengthAdjust="spacing" textLength="102.2383" x="241.752" y="73.8857">build.rs (node)</text><rect fill="#E2E2F0" height="30.2969" rx="2.5" ry="2.5" style="stroke:#181818;stroke-width:0.5;" width="116.2383" x="234.752" y="261.5859"/><text fill="#000000" font-family="sans-serif" font-size="14" lengthAdjust="spacing" textLength="102.2383" x="241.752" y="281.5811">build.rs (node)</text><rect fill="#E2E2F0" height="46.5938" rx="2.5" ry="2.5" style="stroke:#181818;stroke-width:0.5;" width="197.251" x="360.9902" y="37.5938"/><text fill="#000000" font-family="sans-serif" font-size="14" lengthAdjust="spacing" textLength="137.9424" x="390.6445" y="57.5889">cargo build runtime</text><text fill="#000000" font-family="sans-serif" font-size="14" lengthAdjust="spacing" textLength="183.251" x="367.9902" y="73.8857">-F build-wasm,[*inherited]</text><rect fill="#E2E2F0" height="46.5938" rx="2.5" ry="2.5" style="stroke:#181818;stroke-width:0.5;" width="197.251" x="360.9902" y="261.5859"/><text fill="#000000" font-family="sans-serif" font-size="14" lengthAdjust="spacing" textLength="137.9424" x="390.6445" y="281.5811">cargo build runtime</text><text fill="#000000" font-family="sans-serif" font-size="14" lengthAdjust="spacing" textLength="183.251" x="367.9902" y="297.8779">-F build-wasm,[*inherited]</text><rect fill="#E2E2F0" height="30.2969" rx="2.5" ry="2.5" style="stroke:#181818;stroke-width:0.5;" width="136.4316" x="568.2412" y="53.8906"/><text fill="#000000" font-family="sans-serif" font-size="14" lengthAdjust="spacing" textLength="122.4316" x="575.2412" y="73.8857">build.rs (runtime)</text><rect fill="#E2E2F0" height="30.2969" rx="2.5" ry="2.5" style="stroke:#181818;stroke-width:0.5;" width="136.4316" x="568.2412" y="261.5859"/><text fill="#000000" font-family="sans-serif" font-size="14" lengthAdjust="spacing" textLength="122.4316" x="575.2412" y="281.5811">build.rs (runtime)</text><rect fill="#E2E2F0" height="79.1875" rx="2.5" ry="2.5" style="stroke:#181818;stroke-width:0.5;" width="267.4766" x="714.6729" y="5"/><text fill="#000000" font-family="sans-serif" font-size="14" lengthAdjust="spacing" textLength="137.9424" x="779.4399" y="24.9951">cargo build runtime</text><text fill="#000000" font-family="sans-serif" font-size="14" lengthAdjust="spacing" textLength="253.4766" x="721.6729" y="41.292">--target wasm32-unknown-unknown</text><text fill="#000000" font-family="sans-serif" font-size="14" lengthAdjust="spacing" textLength="145.0518" x="775.8853" y="57.5889">--no-default-features</text><text fill="#000000" font-family="sans-serif" font-size="14" lengthAdjust="spacing" textLength="136.0078" x="780.4072" y="73.8857">-F [(*inherited)-std]</text><rect fill="#E2E2F0" height="79.1875" rx="2.5" ry="2.5" style="stroke:#181818;stroke-width:0.5;" width="267.4766" x="714.6729" y="261.5859"/><text fill="#000000" font-family="sans-serif" font-size="14" lengthAdjust="spacing" textLength="137.9424" x="779.4399" y="281.5811">cargo build runtime</text><text fill="#000000" font-family="sans-serif" font-size="14" lengthAdjust="spacing" textLength="253.4766" x="721.6729" y="297.8779">--target wasm32-unknown-unknown</text><text fill="#000000" font-family="sans-serif" font-size="14" lengthAdjust="spacing" textLength="145.0518" x="775.8853" y="314.1748">--no-default-features</text><text fill="#000000" font-family="sans-serif" font-size="14" lengthAdjust="spacing" textLength="136.0078" x="780.4072" y="330.4717">-F [(*inherited)-std]</text><rect fill="#FFFFFF" height="143.3984" style="stroke:#181818;stroke-width:1.0;" width="10" x="153.8774" y="101.1875"/><rect fill="#FFFFFF" height="100.2656" style="stroke:#181818;stroke-width:1.0;" width="10" x="287.8711" y="115.1875"/><rect fill="#FFFFFF" height="57.1328" style="stroke:#181818;stroke-width:1.0;" width="10" x="454.6157" y="129.1875"/><rect fill="#FFFFFF" height="43.1328" style="stroke:#181818;stroke-width:1.0;" width="10" x="631.457" y="143.1875"/><rect fill="#FFFFFF" height="29.1328" style="stroke:#181818;stroke-width:1.0;" width="10" x="843.4111" y="157.1875"/><polygon fill="#181818" points="141.8774,97.1875,151.8774,101.1875,141.8774,105.1875,145.8774,101.1875" style="stroke:#181818;stroke-width:1.0;"/><line style="stroke:#181818;stroke-width:1.0;" x1="44.0015" x2="147.8774" y1="101.1875" y2="101.1875"/><polygon fill="#181818" points="275.8711,111.1875,285.8711,115.1875,275.8711,119.1875,279.8711,115.1875" style="stroke:#181818;stroke-width:1.0;"/><line style="stroke:#181818;stroke-width:1.0;" x1="163.8774" x2="281.8711" y1="115.1875" y2="115.1875"/><polygon fill="#181818" points="442.6157,125.1875,452.6157,129.1875,442.6157,133.1875,446.6157,129.1875" style="stroke:#181818;stroke-width:1.0;"/><line style="stroke:#181818;stroke-width:1.0;" x1="297.8711" x2="448.6157" y1="129.1875" y2="129.1875"/><polygon fill="#181818" points="619.457,139.1875,629.457,143.1875,619.457,147.1875,623.457,143.1875" style="stroke:#181818;stroke-width:1.0;"/><line style="stroke:#181818;stroke-width:1.0;" x1="464.6157" x2="625.457" y1="143.1875" y2="143.1875"/><polygon fill="#181818" points="831.4111,153.1875,841.4111,157.1875,831.4111,161.1875,835.4111,157.1875" style="stroke:#181818;stroke-width:1.0;"/><line style="stroke:#181818;stroke-width:1.0;" x1="641.457" x2="837.4111" y1="157.1875" y2="157.1875"/><polygon fill="#181818" points="308.8711,182.3203,298.8711,186.3203,308.8711,190.3203,304.8711,186.3203" style="stroke:#181818;stroke-width:1.0;"/><line style="stroke:#181818;stroke-width:1.0;stroke-dasharray:2.0,2.0;" x1="302.8711" x2="847.4111" y1="186.3203" y2="186.3203"/><text fill="#000000" font-family="sans-serif" font-size="13" lengthAdjust="spacing" textLength="93.3613" x="314.8711" y="181.2544">runtime.wasm</text><polygon fill="#181818" points="174.8774,211.4531,164.8774,215.4531,174.8774,219.4531,170.8774,215.4531" style="stroke:#181818;stroke-width:1.0;"/><line style="stroke:#181818;stroke-width:1.0;stroke-dasharray:2.0,2.0;" x1="168.8774" x2="291.8711" y1="215.4531" y2="215.4531"/><text fill="#000000" font-family="sans-serif" font-size="13" lengthAdjust="spacing" textLength="65.3745" x="180.8774" y="210.3872">chainspec</text><polygon fill="#181818" points="55.0015,240.5859,45.0015,244.5859,55.0015,248.5859,51.0015,244.5859" style="stroke:#181818;stroke-width:1.0;"/><line style="stroke:#181818;stroke-width:1.0;stroke-dasharray:2.0,2.0;" x1="49.0015" x2="157.8774" y1="244.5859" y2="244.5859"/><text fill="#000000" font-family="sans-serif" font-size="13" lengthAdjust="spacing" textLength="66.8218" x="61.0015" y="239.52">node (bin)</text><!--SRC=[bLEnJiCm4Dtp5QTE2S8TOCl001KZ0mmCXS6rhzGYiIFdalu-iPEwZXDLOhByVE_ktNio5sGixB37oZHeiwpXbfHG3TS46y7jZu53foe9saZyqkmL9FQiRL1iWBVmxDxUXgUNMYPaJzlQ5d97BNovg_IK3s5LGpV6sKwJgiU97c5dtjRt-pkbJsWLeVo-2dWVYszfcFgDCgRw_ofXDC18u9GyFh1E_sfprfVJ5MZ391vvLn4x8gVEOkitsETNtGLhAHR_ENJpoaCAm9xcnd91gkU4YTtnpN5ITmDjONi2X86HaVEPiSC9uCWhXWR-cjbBB4Yus36V7qpAuYkmvTRb9R2jYocJkDuembS4fgnu_OLtILebY1DNsdsHkCyYWtbwGvEGV-a_6-G7fOk5b8dn1m00]--></g></svg>
